<svg width="64" height="64" viewBox="0 0 64 64" fill="none" xmlns="http://www.w3.org/2000/svg">
<rect width="64" height="64" rx="8" fill="#F9F0FF"/>
<path d="M29.0527 10.7321C30.9091 9.66025 33.1963 9.66025 35.0527 10.7321L48.1053 18.2679C49.9617 19.3397 51.1053 21.3205 51.1053 23.4641V38.5359C51.1053 40.6795 49.9617 42.6603 48.1053 43.7321L35.0527 51.2679C33.1963 52.3397 30.9091 52.3397 29.0527 51.2679L16.0002 43.7321C14.1438 42.6603 13.0002 40.6795 13.0002 38.5359V22.3094C13.0002 20.8803 13.7626 19.5598 15.0002 18.8453L29.0527 10.7321Z" fill="#D7C6EC"/>
<path fill-rule="evenodd" clip-rule="evenodd" d="M41.9865 27.5711L40.3717 28.4479L40.3601 29.8637C39.963 30.1442 39.5905 30.4605 39.2427 30.8126C38.6701 31.3944 38.2278 32.0123 37.9156 32.6664C37.6081 33.3127 37.4518 33.9447 37.4467 34.5623C37.437 35.7503 37.9996 36.3853 39.1345 36.4673C39.551 36.4965 40.1169 36.4497 40.8322 36.3271C41.5476 36.1991 42.0423 36.1806 42.3163 36.2716C42.5904 36.3572 42.7256 36.6225 42.7219 37.0674C42.7186 37.4756 42.578 37.8698 42.3001 38.2499C42.0223 38.6248 41.6373 38.9458 41.1451 39.2131C39.8204 39.9323 39.1633 39.6613 39.1736 38.4L37.0969 39.5275C37.0908 40.2655 37.2511 40.8246 37.5777 41.2048C37.9088 41.5824 38.3905 41.7612 39.0226 41.7411C39.4101 41.7255 39.824 41.6359 40.2644 41.4722L40.2506 43.1478L41.8655 42.271L41.8791 40.6205C42.6487 40.1022 43.2867 39.4925 43.793 38.7914C44.4554 37.869 44.7907 36.9133 44.7988 35.9241C44.8061 35.0344 44.5431 34.4373 44.0098 34.1328C43.4766 33.8284 42.6229 33.7943 41.4487 34.0307C40.8111 34.158 40.3278 34.1859 39.9987 34.1145C39.6742 34.0406 39.5134 33.8179 39.5165 33.4463C39.5197 33.0485 39.6626 32.6531 39.9452 32.26C40.2278 31.8617 40.6221 31.5252 41.128 31.2504C41.6524 30.9657 42.0582 30.8913 42.3456 31.027C42.633 31.1575 42.7746 31.4845 42.7703 32.0079L44.8401 30.884C44.8458 30.1984 44.6944 29.671 44.386 29.3017C44.0823 28.93 43.651 28.7499 43.0923 28.7615C42.7497 28.7654 42.3772 28.8414 41.9749 28.9894L41.9865 27.5711Z" fill="#511E9F"/>
<path d="M30.3492 28.2871L14.485 20.6862C13.8212 20.3681 13.0529 20.8519 13.0529 21.588V39.9205C13.0529 40.9752 13.6067 41.9524 14.5115 42.4942L29.0253 51.1867C30.3584 51.9851 32.0529 51.0248 32.0529 49.4709V30.9926C32.0529 29.8381 31.3904 28.786 30.3492 28.2871Z" fill="#B69CD9"/>
</svg>
