<svg width="971" height="151" viewBox="0 0 971 151" fill="none" xmlns="http://www.w3.org/2000/svg">
<mask id="path-1-inside-1" fill="white">
<path d="M496.249 130.591C488.97 130.591 482.821 128.521 477.801 124.379C472.906 120.238 470.459 114.276 470.459 106.495C470.459 100.597 473.471 95.2003 479.495 90.3058C485.519 85.2858 494.994 81.5208 507.921 79.0108C509.929 78.6343 512.188 78.2578 514.698 77.8813C517.208 77.3793 519.843 76.8773 522.604 76.3753V61.5035C522.604 52.9695 521.537 47.0083 519.404 43.6198C517.396 40.1058 514.196 38.3488 509.803 38.3488C506.791 38.3488 504.407 39.3528 502.65 41.3608C500.893 43.2433 499.763 46.569 499.261 51.338L498.885 53.4088C498.634 58.8053 497.316 62.7585 494.931 65.2685C492.547 67.7785 489.598 69.0335 486.084 69.0335C482.821 69.0335 480.122 68.0295 477.989 66.0215C475.855 64.0135 474.789 61.3153 474.789 57.9268C474.789 52.7813 476.546 48.4515 480.06 44.9375C483.699 41.4235 488.468 38.788 494.367 37.031C500.265 35.274 506.666 34.3955 513.568 34.3955C524.738 34.3955 533.334 37.1565 539.358 42.6785C545.508 48.075 548.583 56.9228 548.583 69.2218V110.825C548.583 116.473 551.218 119.296 556.489 119.296H560.631L562.325 120.802C559.94 123.814 557.305 126.136 554.418 127.768C551.657 129.399 547.704 130.215 542.559 130.215C537.037 130.215 532.644 128.96 529.381 126.45C526.244 123.814 524.173 120.363 523.169 116.096C519.404 120.112 515.513 123.563 511.497 126.45C507.607 129.211 502.524 130.591 496.249 130.591ZM507.732 119.108C510.242 119.108 512.564 118.543 514.698 117.414C516.957 116.159 519.592 114.276 522.604 111.766V80.1403C521.349 80.3913 520.094 80.6423 518.839 80.8933C517.584 81.1443 516.141 81.3953 514.509 81.6463C508.736 83.1523 504.093 85.725 500.579 89.3645C497.19 92.8785 495.496 97.6475 495.496 103.672C495.496 108.817 496.688 112.708 499.073 115.343C501.457 117.853 504.344 119.108 507.732 119.108Z"/>
<path d="M601.025 130.591C592.993 130.591 586.718 128.583 582.2 124.567C577.808 120.551 575.611 114.151 575.611 105.366V40.9843H562.622V39.1018L567.14 38.3488C571.031 37.4703 574.356 36.2153 577.117 34.5838C580.004 32.9523 582.828 30.756 585.589 27.995L601.025 10.8643H602.908L602.343 37.2193H623.427V40.9843H602.155V108.754C602.155 113.147 603.096 116.473 604.978 118.732C606.986 120.991 609.496 122.12 612.508 122.12C615.144 122.12 617.466 121.493 619.474 120.238C621.482 118.857 623.49 117.037 625.498 114.778L627.38 116.661C624.87 120.928 621.419 124.316 617.026 126.826C612.634 129.336 607.3 130.591 601.025 130.591Z"/>
<path d="M733.977 127.768V125.885L736.612 125.132C738.997 124.505 740.628 123.438 741.507 121.932C742.511 120.426 743.075 118.418 743.201 115.908V56.9855C743.201 54.2245 742.762 52.2165 741.883 50.9615C741.005 49.581 739.31 48.6398 736.8 48.1378L733.977 47.3848V45.5023L766.167 34.5838L768.05 36.4663L769.556 49.2673C773.697 45.1258 778.404 41.6118 783.675 38.7253C789.071 35.8388 794.656 34.3955 800.429 34.3955C806.453 34.3955 811.285 35.6505 814.924 38.1605C818.564 40.545 821.325 44.31 823.207 49.4555C828.102 44.812 833.373 41.1725 839.02 38.537C844.793 35.776 850.378 34.3955 855.774 34.3955C864.685 34.3955 871.211 36.529 875.352 40.796C879.619 45.063 881.753 51.7773 881.753 60.9388V116.096C881.753 120.991 884.012 124.065 888.53 125.32L890.601 125.885V127.768H847.115V125.885L848.997 125.32C851.382 124.567 853.013 123.438 853.892 121.932C854.896 120.426 855.398 118.418 855.398 115.908V58.3033C855.398 53.0323 854.457 49.4555 852.574 47.573C850.692 45.565 847.68 44.561 843.538 44.561C840.275 44.561 837.075 45.314 833.937 46.82C830.925 48.2005 827.725 50.334 824.337 53.2205C824.964 55.2285 825.341 57.4248 825.466 59.8093C825.717 62.1938 825.843 64.7038 825.843 67.3393V116.096C825.968 120.991 828.227 124.065 832.62 125.32L834.314 125.885V127.768H790.64V125.885L793.275 125.132C795.66 124.379 797.291 123.312 798.17 121.932C799.174 120.426 799.676 118.418 799.676 115.908V58.4915C799.676 53.4715 798.735 49.8948 796.852 47.7613C795.095 45.6278 792.02 44.561 787.628 44.561C784.741 44.561 781.855 45.314 778.968 46.82C776.082 48.2005 773.07 50.2713 769.932 53.0323V116.096C769.932 120.991 772.129 124.065 776.521 125.32L778.215 125.885V127.768H733.977Z"/>
<path d="M929.586 130.591C923.436 130.591 917.915 129.838 913.02 128.332C908.126 126.952 903.608 125.195 899.466 123.061L899.654 100.66H901.537L907.937 111.955C910.698 116.975 913.71 120.74 916.973 123.25C920.362 125.634 924.629 126.826 929.774 126.826C935.798 126.826 940.63 125.509 944.27 122.873C948.035 120.112 949.917 116.473 949.917 111.955C949.917 107.813 948.599 104.425 945.964 101.789C943.328 99.1535 938.434 96.769 931.28 94.6355L923.374 92.1883C915.718 89.9293 909.694 86.4153 905.302 81.6463C900.909 76.8773 898.713 71.0415 898.713 64.139C898.713 55.856 901.976 48.828 908.502 43.055C915.028 37.282 924.378 34.3955 936.551 34.3955C941.446 34.3955 946.027 34.9603 950.294 36.0898C954.686 37.0938 958.89 38.6625 962.906 40.796L961.777 61.127H959.894L953.306 49.4555C950.921 45.314 948.537 42.4275 946.152 40.796C943.893 39.039 940.442 38.1605 935.798 38.1605C931.531 38.1605 927.515 39.3528 923.75 41.7373C919.985 44.1218 918.103 47.5103 918.103 51.9028C918.103 56.1698 919.672 59.5583 922.809 62.0683C926.072 64.5783 930.841 66.9 937.116 69.0335L945.587 71.4808C954.623 74.2418 961.087 78.0695 964.977 82.964C968.868 87.733 970.813 93.506 970.813 100.283C970.813 109.445 967.173 116.786 959.894 122.308C952.741 127.83 942.638 130.591 929.586 130.591Z"/>
</mask>
<path d="M496.249 130.591C488.97 130.591 482.821 128.521 477.801 124.379C472.906 120.238 470.459 114.276 470.459 106.495C470.459 100.597 473.471 95.2003 479.495 90.3058C485.519 85.2858 494.994 81.5208 507.921 79.0108C509.929 78.6343 512.188 78.2578 514.698 77.8813C517.208 77.3793 519.843 76.8773 522.604 76.3753V61.5035C522.604 52.9695 521.537 47.0083 519.404 43.6198C517.396 40.1058 514.196 38.3488 509.803 38.3488C506.791 38.3488 504.407 39.3528 502.65 41.3608C500.893 43.2433 499.763 46.569 499.261 51.338L498.885 53.4088C498.634 58.8053 497.316 62.7585 494.931 65.2685C492.547 67.7785 489.598 69.0335 486.084 69.0335C482.821 69.0335 480.122 68.0295 477.989 66.0215C475.855 64.0135 474.789 61.3153 474.789 57.9268C474.789 52.7813 476.546 48.4515 480.06 44.9375C483.699 41.4235 488.468 38.788 494.367 37.031C500.265 35.274 506.666 34.3955 513.568 34.3955C524.738 34.3955 533.334 37.1565 539.358 42.6785C545.508 48.075 548.583 56.9228 548.583 69.2218V110.825C548.583 116.473 551.218 119.296 556.489 119.296H560.631L562.325 120.802C559.94 123.814 557.305 126.136 554.418 127.768C551.657 129.399 547.704 130.215 542.559 130.215C537.037 130.215 532.644 128.96 529.381 126.45C526.244 123.814 524.173 120.363 523.169 116.096C519.404 120.112 515.513 123.563 511.497 126.45C507.607 129.211 502.524 130.591 496.249 130.591ZM507.732 119.108C510.242 119.108 512.564 118.543 514.698 117.414C516.957 116.159 519.592 114.276 522.604 111.766V80.1403C521.349 80.3913 520.094 80.6423 518.839 80.8933C517.584 81.1443 516.141 81.3953 514.509 81.6463C508.736 83.1523 504.093 85.725 500.579 89.3645C497.19 92.8785 495.496 97.6475 495.496 103.672C495.496 108.817 496.688 112.708 499.073 115.343C501.457 117.853 504.344 119.108 507.732 119.108Z" fill="white"/>
<path d="M601.025 130.591C592.993 130.591 586.718 128.583 582.2 124.567C577.808 120.551 575.611 114.151 575.611 105.366V40.9843H562.622V39.1018L567.14 38.3488C571.031 37.4703 574.356 36.2153 577.117 34.5838C580.004 32.9523 582.828 30.756 585.589 27.995L601.025 10.8643H602.908L602.343 37.2193H623.427V40.9843H602.155V108.754C602.155 113.147 603.096 116.473 604.978 118.732C606.986 120.991 609.496 122.12 612.508 122.12C615.144 122.12 617.466 121.493 619.474 120.238C621.482 118.857 623.49 117.037 625.498 114.778L627.38 116.661C624.87 120.928 621.419 124.316 617.026 126.826C612.634 129.336 607.3 130.591 601.025 130.591Z" fill="white"/>
<path d="M733.977 127.768V125.885L736.612 125.132C738.997 124.505 740.628 123.438 741.507 121.932C742.511 120.426 743.075 118.418 743.201 115.908V56.9855C743.201 54.2245 742.762 52.2165 741.883 50.9615C741.005 49.581 739.31 48.6398 736.8 48.1378L733.977 47.3848V45.5023L766.167 34.5838L768.05 36.4663L769.556 49.2673C773.697 45.1258 778.404 41.6118 783.675 38.7253C789.071 35.8388 794.656 34.3955 800.429 34.3955C806.453 34.3955 811.285 35.6505 814.924 38.1605C818.564 40.545 821.325 44.31 823.207 49.4555C828.102 44.812 833.373 41.1725 839.02 38.537C844.793 35.776 850.378 34.3955 855.774 34.3955C864.685 34.3955 871.211 36.529 875.352 40.796C879.619 45.063 881.753 51.7773 881.753 60.9388V116.096C881.753 120.991 884.012 124.065 888.53 125.32L890.601 125.885V127.768H847.115V125.885L848.997 125.32C851.382 124.567 853.013 123.438 853.892 121.932C854.896 120.426 855.398 118.418 855.398 115.908V58.3033C855.398 53.0323 854.457 49.4555 852.574 47.573C850.692 45.565 847.68 44.561 843.538 44.561C840.275 44.561 837.075 45.314 833.937 46.82C830.925 48.2005 827.725 50.334 824.337 53.2205C824.964 55.2285 825.341 57.4248 825.466 59.8093C825.717 62.1938 825.843 64.7038 825.843 67.3393V116.096C825.968 120.991 828.227 124.065 832.62 125.32L834.314 125.885V127.768H790.64V125.885L793.275 125.132C795.66 124.379 797.291 123.312 798.17 121.932C799.174 120.426 799.676 118.418 799.676 115.908V58.4915C799.676 53.4715 798.735 49.8948 796.852 47.7613C795.095 45.6278 792.02 44.561 787.628 44.561C784.741 44.561 781.855 45.314 778.968 46.82C776.082 48.2005 773.07 50.2713 769.932 53.0323V116.096C769.932 120.991 772.129 124.065 776.521 125.32L778.215 125.885V127.768H733.977Z" fill="white"/>
<path d="M929.586 130.591C923.436 130.591 917.915 129.838 913.02 128.332C908.126 126.952 903.608 125.195 899.466 123.061L899.654 100.66H901.537L907.937 111.955C910.698 116.975 913.71 120.74 916.973 123.25C920.362 125.634 924.629 126.826 929.774 126.826C935.798 126.826 940.63 125.509 944.27 122.873C948.035 120.112 949.917 116.473 949.917 111.955C949.917 107.813 948.599 104.425 945.964 101.789C943.328 99.1535 938.434 96.769 931.28 94.6355L923.374 92.1883C915.718 89.9293 909.694 86.4153 905.302 81.6463C900.909 76.8773 898.713 71.0415 898.713 64.139C898.713 55.856 901.976 48.828 908.502 43.055C915.028 37.282 924.378 34.3955 936.551 34.3955C941.446 34.3955 946.027 34.9603 950.294 36.0898C954.686 37.0938 958.89 38.6625 962.906 40.796L961.777 61.127H959.894L953.306 49.4555C950.921 45.314 948.537 42.4275 946.152 40.796C943.893 39.039 940.442 38.1605 935.798 38.1605C931.531 38.1605 927.515 39.3528 923.75 41.7373C919.985 44.1218 918.103 47.5103 918.103 51.9028C918.103 56.1698 919.672 59.5583 922.809 62.0683C926.072 64.5783 930.841 66.9 937.116 69.0335L945.587 71.4808C954.623 74.2418 961.087 78.0695 964.977 82.964C968.868 87.733 970.813 93.506 970.813 100.283C970.813 109.445 967.173 116.786 959.894 122.308C952.741 127.83 942.638 130.591 929.586 130.591Z" fill="white"/>
<path d="M496.249 130.591C488.97 130.591 482.821 128.521 477.801 124.379C472.906 120.238 470.459 114.276 470.459 106.495C470.459 100.597 473.471 95.2003 479.495 90.3058C485.519 85.2858 494.994 81.5208 507.921 79.0108C509.929 78.6343 512.188 78.2578 514.698 77.8813C517.208 77.3793 519.843 76.8773 522.604 76.3753V61.5035C522.604 52.9695 521.537 47.0083 519.404 43.6198C517.396 40.1058 514.196 38.3488 509.803 38.3488C506.791 38.3488 504.407 39.3528 502.65 41.3608C500.893 43.2433 499.763 46.569 499.261 51.338L498.885 53.4088C498.634 58.8053 497.316 62.7585 494.931 65.2685C492.547 67.7785 489.598 69.0335 486.084 69.0335C482.821 69.0335 480.122 68.0295 477.989 66.0215C475.855 64.0135 474.789 61.3153 474.789 57.9268C474.789 52.7813 476.546 48.4515 480.06 44.9375C483.699 41.4235 488.468 38.788 494.367 37.031C500.265 35.274 506.666 34.3955 513.568 34.3955C524.738 34.3955 533.334 37.1565 539.358 42.6785C545.508 48.075 548.583 56.9228 548.583 69.2218V110.825C548.583 116.473 551.218 119.296 556.489 119.296H560.631L562.325 120.802C559.94 123.814 557.305 126.136 554.418 127.768C551.657 129.399 547.704 130.215 542.559 130.215C537.037 130.215 532.644 128.96 529.381 126.45C526.244 123.814 524.173 120.363 523.169 116.096C519.404 120.112 515.513 123.563 511.497 126.45C507.607 129.211 502.524 130.591 496.249 130.591ZM507.732 119.108C510.242 119.108 512.564 118.543 514.698 117.414C516.957 116.159 519.592 114.276 522.604 111.766V80.1403C521.349 80.3913 520.094 80.6423 518.839 80.8933C517.584 81.1443 516.141 81.3953 514.509 81.6463C508.736 83.1523 504.093 85.725 500.579 89.3645C497.19 92.8785 495.496 97.6475 495.496 103.672C495.496 108.817 496.688 112.708 499.073 115.343C501.457 117.853 504.344 119.108 507.732 119.108Z" stroke="white" stroke-width="2" mask="url(#path-1-inside-1)"/>
<path d="M601.025 130.591C592.993 130.591 586.718 128.583 582.2 124.567C577.808 120.551 575.611 114.151 575.611 105.366V40.9843H562.622V39.1018L567.14 38.3488C571.031 37.4703 574.356 36.2153 577.117 34.5838C580.004 32.9523 582.828 30.756 585.589 27.995L601.025 10.8643H602.908L602.343 37.2193H623.427V40.9843H602.155V108.754C602.155 113.147 603.096 116.473 604.978 118.732C606.986 120.991 609.496 122.12 612.508 122.12C615.144 122.12 617.466 121.493 619.474 120.238C621.482 118.857 623.49 117.037 625.498 114.778L627.38 116.661C624.87 120.928 621.419 124.316 617.026 126.826C612.634 129.336 607.3 130.591 601.025 130.591Z" stroke="white" stroke-width="2" mask="url(#path-1-inside-1)"/>
<path d="M733.977 127.768V125.885L736.612 125.132C738.997 124.505 740.628 123.438 741.507 121.932C742.511 120.426 743.075 118.418 743.201 115.908V56.9855C743.201 54.2245 742.762 52.2165 741.883 50.9615C741.005 49.581 739.31 48.6398 736.8 48.1378L733.977 47.3848V45.5023L766.167 34.5838L768.05 36.4663L769.556 49.2673C773.697 45.1258 778.404 41.6118 783.675 38.7253C789.071 35.8388 794.656 34.3955 800.429 34.3955C806.453 34.3955 811.285 35.6505 814.924 38.1605C818.564 40.545 821.325 44.31 823.207 49.4555C828.102 44.812 833.373 41.1725 839.02 38.537C844.793 35.776 850.378 34.3955 855.774 34.3955C864.685 34.3955 871.211 36.529 875.352 40.796C879.619 45.063 881.753 51.7773 881.753 60.9388V116.096C881.753 120.991 884.012 124.065 888.53 125.32L890.601 125.885V127.768H847.115V125.885L848.997 125.32C851.382 124.567 853.013 123.438 853.892 121.932C854.896 120.426 855.398 118.418 855.398 115.908V58.3033C855.398 53.0323 854.457 49.4555 852.574 47.573C850.692 45.565 847.68 44.561 843.538 44.561C840.275 44.561 837.075 45.314 833.937 46.82C830.925 48.2005 827.725 50.334 824.337 53.2205C824.964 55.2285 825.341 57.4248 825.466 59.8093C825.717 62.1938 825.843 64.7038 825.843 67.3393V116.096C825.968 120.991 828.227 124.065 832.62 125.32L834.314 125.885V127.768H790.64V125.885L793.275 125.132C795.66 124.379 797.291 123.312 798.17 121.932C799.174 120.426 799.676 118.418 799.676 115.908V58.4915C799.676 53.4715 798.735 49.8948 796.852 47.7613C795.095 45.6278 792.02 44.561 787.628 44.561C784.741 44.561 781.855 45.314 778.968 46.82C776.082 48.2005 773.07 50.2713 769.932 53.0323V116.096C769.932 120.991 772.129 124.065 776.521 125.32L778.215 125.885V127.768H733.977Z" stroke="white" stroke-width="2" mask="url(#path-1-inside-1)"/>
<path d="M929.586 130.591C923.436 130.591 917.915 129.838 913.02 128.332C908.126 126.952 903.608 125.195 899.466 123.061L899.654 100.66H901.537L907.937 111.955C910.698 116.975 913.71 120.74 916.973 123.25C920.362 125.634 924.629 126.826 929.774 126.826C935.798 126.826 940.63 125.509 944.27 122.873C948.035 120.112 949.917 116.473 949.917 111.955C949.917 107.813 948.599 104.425 945.964 101.789C943.328 99.1535 938.434 96.769 931.28 94.6355L923.374 92.1883C915.718 89.9293 909.694 86.4153 905.302 81.6463C900.909 76.8773 898.713 71.0415 898.713 64.139C898.713 55.856 901.976 48.828 908.502 43.055C915.028 37.282 924.378 34.3955 936.551 34.3955C941.446 34.3955 946.027 34.9603 950.294 36.0898C954.686 37.0938 958.89 38.6625 962.906 40.796L961.777 61.127H959.894L953.306 49.4555C950.921 45.314 948.537 42.4275 946.152 40.796C943.893 39.039 940.442 38.1605 935.798 38.1605C931.531 38.1605 927.515 39.3528 923.75 41.7373C919.985 44.1218 918.103 47.5103 918.103 51.9028C918.103 56.1698 919.672 59.5583 922.809 62.0683C926.072 64.5783 930.841 66.9 937.116 69.0335L945.587 71.4808C954.623 74.2418 961.087 78.0695 964.977 82.964C968.868 87.733 970.813 93.506 970.813 100.283C970.813 109.445 967.173 116.786 959.894 122.308C952.741 127.83 942.638 130.591 929.586 130.591Z" stroke="white" stroke-width="2" mask="url(#path-1-inside-1)"/>
<path d="M320.259 107.493C317.54 104.353 315.47 100.708 314.166 96.7679L313.813 95.7769L313.46 94.5656L313.239 93.8168L312.886 92.4294L312.71 91.6146C312.533 90.8438 312.378 90.0289 312.246 89.2141C312.219 88.9181 312.175 88.624 312.114 88.3332L311.937 86.9017C311.972 86.587 311.972 86.2694 311.937 85.9547L311.827 84.7435L373.632 69.8782C373.269 66.6856 372.318 63.5873 370.829 60.7387C368.537 55.7582 364.81 51.572 360.123 48.7143C354.932 45.4386 349.1 43.3063 343.016 42.4599L341.979 42.3057C338.311 41.9013 334.61 41.9013 330.942 42.3057C321.21 43.3559 312.073 47.4933 304.874 54.1099C297.764 60.5635 293.011 69.1953 291.365 78.6432L291.365 79.0176C291.254 79.6342 291.166 80.2288 291.1 80.9115C291.034 81.5942 291.1 81.6823 290.967 82.1228C290.996 82.4599 290.996 82.7987 290.967 83.1358C291.011 83.7223 291.011 84.3112 290.967 84.8976L290.967 87.7386C291.111 92.8383 292.188 97.8688 294.146 102.582C297.636 110.66 303.404 117.552 310.748 122.419C318.092 127.287 326.695 129.921 335.511 130C342.968 130.15 350.35 128.504 357.033 125.199C363.642 121.943 369.344 117.109 373.632 111.127L372.572 108.462C368.202 116.787 338.05 127.137 320.259 107.493ZM348.38 70.9132L311.628 79.7223C311.628 78.6212 311.628 77.52 311.782 76.485L311.782 76.1546C311.764 75.8025 311.764 75.4497 311.782 75.0975L311.959 73.6661C312.292 71.3749 312.809 69.114 313.504 66.9051C314.751 62.8066 316.66 58.9385 319.155 55.4533C321.431 52.2414 324.356 49.5407 327.741 47.5251C330.982 45.5923 334.694 44.5866 338.469 44.6181C343.737 44.6181 347.593 46.0863 350.035 49.0227C350.925 50.0459 351.668 51.1873 352.243 52.4142C354.693 58.6466 354.516 69.0193 348.38 70.9132Z" fill="white"/>
<path d="M209.961 108.396C205.546 116.808 175.438 127.137 157.647 107.515C154.73 104.123 152.55 100.163 151.246 95.8867C149.711 91.0374 148.966 85.974 149.039 80.8892C149.006 76.1418 149.705 71.4177 151.114 66.8828C152.36 62.7843 154.269 58.9162 156.764 55.431C159 52.2451 161.871 49.5536 165.196 47.5248C168.438 45.5931 172.149 44.5874 175.924 44.6178C181.192 44.6178 185.048 46.086 187.49 49.0224C190.008 52.1973 191.307 56.1644 191.155 60.2099C191.208 62.3108 190.895 64.4049 190.227 66.3983L208.99 61.9937C202.169 44.3756 179.566 41.931 175.394 41.931C139.591 41.3585 119.946 74.9651 131.512 102.339C135.007 110.422 140.778 117.319 148.124 122.194C155.471 127.069 164.077 129.712 172.9 129.802C180.356 129.952 187.739 128.305 194.421 125.001C201.031 121.745 206.733 116.911 211.021 110.928L209.961 108.396Z" fill="white"/>
<path d="M291.365 108.396C286.95 116.808 256.842 127.137 239.051 107.515C236.164 104.145 234.007 100.216 232.716 95.9747C231.182 91.1254 230.436 86.062 230.509 80.9772C230.476 76.2299 231.176 71.5057 232.584 66.9708C233.823 62.8736 235.725 59.0055 238.212 55.519C240.443 52.305 243.313 49.5838 246.644 47.5248C249.885 45.592 253.597 44.5862 257.372 44.6178C262.625 44.6178 266.481 46.0859 268.938 49.0223C271.48 52.1882 272.803 56.1561 272.669 60.2098C272.725 62.3126 272.404 64.4085 271.72 66.3982L290.372 61.9937C283.595 44.3755 260.992 41.953 256.864 41.953C221.061 41.3804 201.416 74.9871 212.983 102.361C216.454 110.465 222.213 117.386 229.558 122.281C236.903 127.177 245.516 129.836 254.348 129.934C261.819 130.091 269.218 128.444 275.914 125.133C282.523 121.876 288.225 117.043 292.513 111.06L291.365 108.396Z" fill="white"/>
<path d="M400.694 112.316L400.694 -6.24261e-07L374.206 6.43063L374.03 6.43063L374.03 8.91919C374.957 8.91919 382.969 11.1215 382.969 16.6271L382.969 111.919C382.969 123.944 374.449 125.684 368.688 126.058L368.688 128.062L414.976 128.062L414.976 126.058C409.237 125.684 400.893 123.922 400.694 112.316Z" fill="white"/>
<path d="M80.5228 -2.77685e-06L54.2998 6.4086L54.1011 6.4086L54.1011 8.3466C55.0282 8.3466 62.8201 11.0994 60.7231 16.0546C50.768 38.0332 18.4748 111.391 16.7752 114.694C11.1906 125.706 3.26632 125.706 -0.000529468 126.058L-0.000529555 128.062L41.0558 128.062L41.0558 126.014C41.0558 126.014 25.472 126.19 25.472 118.064C25.472 113.131 33.5288 93.7286 35.714 88.4212L89.1977 75.4058C89.3301 75.7361 103.722 110.51 103.722 117.844C103.722 125.772 90.9415 126.014 90.4779 126.014L90.4779 128.018L144.05 128.018L144.05 126.014C140.247 126.078 136.509 125.028 133.299 122.992C130.089 120.956 127.549 118.025 125.994 114.562C124.382 111.391 80.5228 -2.77685e-06 80.5228 -2.77685e-06ZM87.3435 70.9131L37.9655 82.9375C38.2304 82.2989 65.0936 19.4901 65.8441 17.9045C66.9699 20.5252 87.3214 70.9131 87.3214 70.9131L87.3435 70.9131Z" fill="white"/>
<path d="M640.757 121.86C648.18 128.861 659.185 129.485 669.97 126.279C680.877 123.036 692.481 115.68 702.413 105.151C712.344 94.6214 719.011 82.6076 721.611 71.5308C724.183 60.5771 722.918 49.6269 715.495 42.6253C708.072 35.6237 697.066 34.9994 686.282 38.2059C675.375 41.4484 663.771 48.8047 653.839 59.3341C643.907 69.8634 637.241 81.8773 634.64 92.9541C632.069 103.908 633.334 114.858 640.757 121.86Z" stroke="white" stroke-width="8.56055"/>
<path d="M719.75 117.358C726.33 109.559 726.343 98.5356 722.544 87.945C718.702 77.2353 710.714 66.0565 699.65 56.7236C688.586 47.3907 676.221 41.4003 665.018 39.4176C653.938 37.4571 643.075 39.3275 636.496 47.127C629.916 54.9265 629.903 65.9496 633.702 76.5403C637.544 87.2499 645.532 98.4287 656.596 107.762C667.659 117.095 680.024 123.085 691.228 125.068C702.308 127.028 713.171 125.158 719.75 117.358Z" stroke="white" stroke-width="8.56055"/>
<circle cx="655.718" cy="107.532" r="8.96045" fill="white"/>
<circle cx="678.508" cy="82.5723" r="12" fill="white"/>
<circle cx="643.4" cy="41.4482" r="8.96045" fill="white"/>
<circle cx="720.685" cy="45.9287" r="8.96045" fill="white"/>
</svg>
